<?xml version="1.0" encoding="utf-8"?>
<!-- Uploaded to: SVG Repo, www.svgrepo.com, Generator: SVG Repo Mixer Tools -->
<svg width="30px" height="30px" viewBox="0 0 1024 1024" class="icon"  version="1.1" xmlns="http://www.w3.org/2000/svg"><path d="M119.552 89.56928h-0.7168v182.37952h784.68096v-44.49792c0.03072-0.73216 0.21504-1.42336 0.21504-2.16576V96.76288c0-0.7424-0.18432-1.4336-0.21504-2.16576v-5.02272h-0.50176C899.51744 65.01888 878.7712 46.08 853.44256 46.08H169.12384c-25.32864 0-46.08 18.93888-49.57184 43.48928z" fill="#C4BCB1" /><path d="M172.19584 112.8192h681.2672v208.55296H172.19584z" fill="#FFFFFF" /><path d="M117.18144 251.8528h787.86048V977.92H117.18144z" fill="#EEDBC3" /><path d="M117.18144 251.8528h407.8336V977.92H117.18144z" fill="#DCC9A5" /><path d="M119.55712 939.22816h-0.72192V977.92h787.76832l0.22016-31.50336c0-0.7424-0.18432-1.4336-0.22016-2.16576v-5.02272h-0.50688c-3.5072-24.55552-24.33536-43.48928-49.76128-43.48928H169.3184c-25.42592-0.00512-46.25408 18.93376-49.76128 43.48928z" fill="#C4BCB1" /><path d="M506.82368 629.4784a5.49376 5.49376 0 0 1-10.98752 0V418.00704a5.49376 5.49376 0 0 1 10.98752 0v211.47136z" fill="#F38181" /><path d="M527.25248 443.41248m-47.88736 0a47.88736 47.88736 0 1 0 95.77472 0 47.88736 47.88736 0 1 0-95.77472 0Z" fill="#5B5144" /><path d="M527.25248 443.41248m-24.71936 0a24.71936 24.71936 0 1 0 49.43872 0 24.71936 24.71936 0 1 0-49.43872 0Z" fill="#FCE38A" /><path d="M626.8928 186.19904a13.1328 13.1328 0 0 1-13.1328 13.1328H243.00544a13.1328 13.1328 0 0 1 0-26.2656h370.75968a13.12768 13.12768 0 0 1 13.12768 13.1328z" fill="#C4BCB1" /></svg>